HIERARCHY
ROOT Hips
{
  OFFSET 0.874659 18.2731 -3.98854
  CHANNELS 6 Xposition Yposition Zposition Zrotation Xrotation Yrotation
  JOINT LHipJoint
  {
    OFFSET 0 0 0
    CHANNELS 3 Zrotation Xrotation Yrotation
    JOINT LeftUpLeg
    {
      OFFSET 1.8 -1.4 0.085
      CHANNELS 3 Zrotation Xrotation Yrotation
      JOINT LeftLeg
      {
        OFFSET 2.215 -6 0
        CHANNELS 3 Zrotation Xrotation Yrotation
        JOINT LeftFoot
        {
          OFFSET 2.5 -6.9 0
          CHANNELS 3 Zrotation Xrotation Yrotation
          JOINT LeftToeBase
          {
            OFFSET 0.2 -0.5 1.95
            CHANNELS 3 Zrotation Xrotation Yrotation
            End Site
            {
              OFFSET 0 0 1
            }
          }
        }
      }
    }
  }
  JOINT RHipJoint
  {
    OFFSET 0 0 0
    CHANNELS 3 Zrotation Xrotation Yrotation
    JOINT RightUpLeg
    {
      OFFSET -1.8 -1.4 0.085
      CHANNELS 3 Zrotation Xrotation Yrotation
      JOINT RightLeg
      {
        OFFSET -2.215 -6 0
        CHANNELS 3 Zrotation Xrotation Yrotation
        JOINT RightFoot
        {
          OFFSET -2.5 -6.9 0
          CHANNELS 3 Zrotation Xrotation Yrotation
          JOINT RightToeBase
          {
            OFFSET -0.2 -0.5 1.95
            CHANNELS 3 Zrotation Xrotation Yrotation
            End Site
            {
              OFFSET 0 0 1
            }
          }
        }
      }
    }
  }
  JOINT LowerBack
  {
    OFFSET 0 0 0
    CHANNELS 3 Zrotation Xrotation Yrotation
    JOINT Spine
    {
      OFFSET -0.087 1.94 -0.2889
      CHANNELS 3 Zrotation Xrotation Yrotation
      JOINT Spine1
      {
        OFFSET 0 1.95 0.06
        CHANNELS 3 Zrotation Xrotation Yrotation
        JOINT Neck
        {
          OFFSET 0 0 0
          CHANNELS 3 Zrotation Xrotation Yrotation
          JOINT Neck1
          {
            OFFSET 0 1.6 0.34
            CHANNELS 3 Zrotation Xrotation Yrotation
            JOINT Head
            {
              OFFSET 0 1.667 -0.24
              CHANNELS 3 Zrotation Xrotation Yrotation
              End Site
              {
                OFFSET 0 1.686 -0.12
              }
            }
          }
        }
        JOINT LeftShoulder
        {
          OFFSET 0 0 0
          CHANNELS 3 Zrotation Xrotation Yrotation
          JOINT LeftArm
          {
            OFFSET 2.7 1.55 -0.73
            CHANNELS 3 Zrotation Xrotation Yrotation
            JOINT LeftForeArm
            {
              OFFSET 5.45 0 0
              CHANNELS 3 Zrotation Xrotation Yrotation
              JOINT LeftHand
              {
                OFFSET 3.45 0 0
                CHANNELS 3 Zrotation Xrotation Yrotation
                JOINT LeftFingerBase
                {
                  OFFSET 0 0 0
                  CHANNELS 3 Zrotation Xrotation Yrotation
                  JOINT LeftHandIndex1
                  {
                    OFFSET 0.75 0 0
                    CHANNELS 3 Zrotation Xrotation Yrotation
                    End Site
                    {
                      OFFSET 0.6 0 0
                    }
                  }
                }
                JOINT LThumb
                {
                  OFFSET 0 0 0
                  CHANNELS 3 Zrotation Xrotation Yrotation
                  End Site
                  {
                    OFFSET 0.59 0 0.59
                  }
                }
              }
            }
          }
        }
        JOINT RightShoulder
        {
          OFFSET 0 0 0
          CHANNELS 3 Zrotation Xrotation Yrotation
          JOINT RightArm
          {
            OFFSET -2.7 1.55 -0.73
            CHANNELS 3 Zrotation Xrotation Yrotation
            JOINT RightForeArm
            {
              OFFSET -5.45 0 0
              CHANNELS 3 Zrotation Xrotation Yrotation
              JOINT RightHand
              {
                OFFSET -3.45 0 0
                CHANNELS 3 Zrotation Xrotation Yrotation
                JOINT RightFingerBase
                {
                  OFFSET 0 0 0
                  CHANNELS 3 Zrotation Xrotation Yrotation
                  JOINT RightHandIndex1
                  {
                    OFFSET -0.75 0 0
                    CHANNELS 3 Zrotation Xrotation Yrotation
                    End Site
                    {
                      OFFSET -0.6 0 0
                    }
                  }
                }
                JOINT RThumb
                {
                  OFFSET 0 0 0
                  CHANNELS 3 Zrotation Xrotation Yrotation
                  End Site
                  {
                    OFFSET -0.59 0 0.59
                  }
                }
              }
            }
          }
        }
      }
    }
  }
}
MOTION
Frames:	5
Frame Time:	0.00833333
3.26644 18.2932 0.479877 -5.54827 -1.22085 67.663 1.98785e-016 -1.39149e-015 9.54166e-015 -11.8219 -13.1204 0.97897 3.61914 14.6282 7.72834 -0.581793 -2.20663 -10.1051 1.59028e-015 1.66979e-014 -4.45278e-014 1.98785e-016 -1.39149e-015 9.54166e-015 15.5392 -21.4762 4.84144 -1.19289 7.83544 -17.7082 10.1456 15.5388 -7.95759 -3.18055e-015 0 -6.36111e-015 1.98785e-016 -1.39149e-015 9.54166e-015 2.22244 8.04339 2.00624 -4.41751 1.85928 3.04621 0.81188 -8.79686 -2.81809 2.04548 28.1692 -3.42578 14.1115 23.4653 -13.0398 -5.08736 1.40713 -6.27973 -24.0102 32.0793 -60.7306 -29.2522 14.6853 -88.9869 -4.90574 7.60731 -39.1894 -6.26571e-009 1.63324e-007 -8.34603e-007 8.82781e-032 -1.59028e-015 3.18055e-015 3.53113e-031 3.18055e-015 -6.36111e-015 -13.0179 0.532082 -21.1962 12.1676 51.6054 94.6733 55.229 -3.15421 91.8906 -6.03495 4.47963 50.451 3.18055e-015 0 -1.59028e-015 6.36111e-015 -3.18055e-015 -6.36111e-015 3.18055e-015 0 -1.59028e-015 
3.29338 18.2853 0.562974 -5.46731 -0.961937 67.6768 2.98177e-016 -1.98785e-016 6.36111e-015 -11.8586 -12.8413 1.06574 3.68688 14.4207 7.73726 -0.896571 -2.16887 -10.1337 4.77083e-015 1.90833e-014 -4.77083e-014 2.98177e-016 -1.98785e-016 6.36111e-015 15.7961 -21.1776 4.83458 -1.35111 7.63752 -18.6726 9.09698 14.3348 -7.16033 -3.18055e-015 0 -3.18055e-015 2.98177e-016 -1.98785e-016 6.36111e-015 1.90857 6.84188 1.49946 -4.31491 4.79049 2.57399 0.668257 -10.5522 -2.70938 1.81769 26.4179 -3.21769 13.182 25.2769 -12.5055 -3.13001 0.873322 -2.7659 -22.8549 32.4809 -64.5091 -27.3124 14.2936 -89.8205 -3.27376 7.09938 -39.837 -6.26571e-009 1.63324e-007 -8.34603e-007 -3.53113e-031 -3.18055e-015 -6.36111e-015 3.18055e-015 0 -0 -13.4327 0.670997 -23.2906 7.22034 49.8275 100.06 55.6059 -3.23134 93.0562 -8.0557 3.75568 53.9964 1.59028e-015 -3.18055e-015 1.59028e-015 3.18055e-015 0 -3.18055e-015 4.77083e-015 -3.18055e-015 -1.59028e-015 
3.32061 18.2772 0.647163 -5.37849 -0.714644 67.6652 -5.96354e-016 1.98785e-016 -0 -11.8839 -12.5562 1.16018 3.75701 14.2316 7.75515 -1.2194 -2.1286 -10.1449 3.18055e-015 1.90833e-014 -5.08889e-014 -5.96354e-016 1.98785e-016 -0 16.0629 -20.8354 4.81402 -1.49306 7.42576 -19.5113 8.03635 13.1322 -6.39028 -4.77083e-015 -1.59028e-015 -6.36111e-015 -5.96354e-016 1.98785e-016 -0 1.59905 5.73203 1.02407 -4.1642 7.48363 2.12646 0.534058 -12.161 -2.60106 1.60802 24.8127 -3.02167 12.2469 26.9328 -11.9719 -1.25531 0.371243 0.486915 -21.7366 32.5459 -67.9278 -25.4683 13.9204 -90.5853 -1.64093 6.57615 -40.3824 -6.26571e-009 1.63324e-007 -8.34603e-007 -7.95139e-016 -3.18055e-015 6.36111e-015 1.59028e-015 0 -9.54166e-015 -13.7972 0.804093 -25.2723 3.04188 47.7858 104.487 55.873 -3.0975 94.2485 -9.89513 3.09958 57.1581 -3.53113e-031 -6.36111e-015 -3.18055e-015 1.59028e-015 -6.36111e-015 1.59028e-015 1.59028e-015 -6.36111e-015 -4.77083e-015 
3.34628 18.2696 0.731996 -5.24212 -0.511399 67.5922 2.98177e-016 -8.94531e-016 -6.36111e-015 -11.8581 -12.22 1.30279 3.80423 14.0691 7.76009 -1.54776 -2.0942 -10.1049 1.59028e-015 2.06736e-014 -4.77083e-014 2.98177e-016 -8.94531e-016 -6.36111e-015 16.3447 -20.3852 4.76143 -1.61317 7.1361 -20.1281 6.96912 12.0239 -5.69694 1.59028e-015 0 -6.36111e-015 2.98177e-016 -8.94531e-016 -6.36111e-015 1.3673 5.07396 0.726223 -4.022 9.02782 1.83222 0.410119 -13.0616 -2.51122 1.4285 23.9147 -2.86739 11.4677 27.8804 -11.568 -0.134584 0.0768464 2.3846 -21.1752 32.4433 -69.7938 -24.0998 13.7469 -91.0901 -0.309163 6.11453 -40.6095 -6.26571e-009 1.63324e-007 -8.34603e-007 3.97569e-015 7.95139e-016 -0 -1.59028e-015 1.59028e-015 -0 -14.1461 0.921657 -26.7704 0.162114 46.2441 107.245 56.2146 -2.81065 95.2261 -11.0767 2.67081 59.0361 4.77083e-015 -3.18055e-015 7.95139e-015 -3.18055e-015 3.18055e-015 3.18055e-015 4.77083e-015 -3.18055e-015 6.36111e-015 
3.37034 18.2622 0.817937 -5.04312 -0.352299 67.4601 4.96962e-017 -1.54058e-015 3.18055e-015 -11.7815 -11.811 1.50075 3.82481 13.9282 7.72711 -1.87761 -2.07886 -10.0007 4.77083e-015 1.98785e-014 -5.08889e-014 4.96962e-017 -1.54058e-015 3.18055e-015 16.65 -19.7917 4.66661 -1.70687 6.75375 -20.5032 5.83665 10.984 -5.05919 5.29669e-031 -3.18055e-015 9.54166e-015 4.96962e-017 -1.54058e-015 3.18055e-015 1.22246 4.90017 0.619506 -3.92037 9.3622 1.70555 0.300778 -13.2111 -2.44585 1.28309 23.767 -2.76015 10.8609 28.0608 -11.3043 0.139779 0.00302424 2.83323 -21.2221 32.3783 -70.1079 -23.1556 13.8285 -91.3524 0.830559 5.66157 -40.4841 -6.26571e-009 1.63324e-007 -8.34603e-007 7.95139e-016 0 -3.18055e-015 3.18055e-015 1.59028e-015 -3.18055e-015 -14.4771 1.02715 -27.7471 -1.68385 45.4258 108.625 56.5706 -2.62691 95.9561 -11.6278 2.42526 59.5234 -7.95139e-015 -6.36111e-015 -3.18055e-015 -7.95139e-015 0 7.95139e-015 -6.36111e-015 -6.36111e-015 -3.18055e-015 
